<svg width="65" height="39" viewBox="0 0 65 39" fill="none" xmlns="http://www.w3.org/2000/svg">
<path d="M64.9682 35.2186C64.2688 36.2992 63.3615 36.6268 62.0509 36.3653C61.1877 36.1952 60.2331 36.463 59.3227 36.5796C59.0392 36.6174 58.7651 36.778 58.5067 36.9198C54.9594 38.8982 51.4247 38.8573 47.8774 36.9072C46.1478 35.9558 44.434 36.085 42.6541 36.9135C40.4299 37.95 38.149 38.9959 35.5941 38.2146C34.3056 37.8208 33.0486 37.3104 31.8168 36.7623C30.2448 36.0629 28.7137 36.0409 27.17 36.7906C27.1322 36.8095 27.0912 36.8221 27.0566 36.8442C23.4431 38.8793 19.8359 38.8888 16.1973 36.8694C14.5654 35.9621 12.9114 36.085 11.2071 36.8505C9.05852 37.8145 6.89107 38.9392 4.40542 38.2902C3.30909 38.0035 2.22537 37.6223 1.1889 37.1624C0.127221 36.6898 -0.238223 35.6975 0.152423 34.7586C0.552521 33.7915 1.44408 33.3788 2.55616 33.7064C3.40361 33.9553 4.21955 34.3081 5.07015 34.5444C5.4608 34.6547 5.9113 34.6704 6.31455 34.6106C8.17327 34.3365 8.19847 34.2892 8.19847 32.3801C8.19847 29.8 8.18587 27.2198 8.20162 24.6397C8.21422 22.5982 8.81594 22.0217 10.8794 22.0154C12.1868 22.0122 13.4942 22.0154 14.8552 22.0154C15.6207 19.2714 17.1298 17.1103 19.7666 16.0549C21.0646 15.5351 22.5421 15.2831 23.9472 15.2327C27.2393 15.1161 30.5377 15.1948 34.0504 15.1948C34.0504 14.0576 34.0504 12.9801 34.0504 11.9027C34.0504 11.0994 33.9055 10.2551 34.1134 9.50528C34.2615 8.97287 34.8286 8.27348 35.3074 8.18527C36.1234 8.03406 36.5613 8.70823 36.5644 9.55883C36.5644 11.3703 36.5644 13.1849 36.5644 15.094H39.2832C39.2832 14.6404 39.2832 14.1899 39.2832 13.7394C39.2832 9.76361 39.2926 5.78784 39.2769 1.80892C39.2737 0.882713 39.4092 -0.00884129 40.537 0.0100609C41.6554 0.0258128 41.7972 0.942571 41.7972 1.84988C41.7972 5.78469 41.7972 9.71951 41.7972 13.6512C41.7972 14.108 41.7972 14.5648 41.7972 15.1917C42.8116 15.1917 43.7283 15.1822 44.6451 15.1917C46.5196 15.2138 47.1749 15.8596 47.1938 17.7025C47.2064 19.0131 47.2064 20.3237 47.2158 21.6342C47.2158 21.7098 47.2662 21.7854 47.345 22.0059C48.3783 22.0059 49.4652 22.0059 50.5489 22.0059C53.6363 22.0059 56.7236 21.9996 59.8141 22.0059C62.199 22.0123 62.974 23.244 61.9375 25.3579C60.419 28.4516 58.2579 31.016 55.5202 33.0984C54.9878 33.5017 54.4365 33.8828 53.9608 34.4909C54.3924 34.3838 54.8397 34.3144 55.2556 34.1632C56.7236 33.6371 58.1444 32.8999 59.6535 32.5817C61.5689 32.1754 63.5347 32.1659 64.965 33.9364V35.206L64.9682 35.2186ZM12.0419 25.8463V32.0273C14.0676 32.525 16.0523 32.7015 17.7441 33.5017C20.4156 34.765 22.8477 34.891 25.4562 33.4607C28.1277 31.9958 30.9284 32.0147 33.5968 33.4701C36.2116 34.8973 38.7224 34.913 41.2837 33.4355C41.6838 33.2055 42.128 32.9913 42.5753 32.922C43.8166 32.7267 45.1271 32.3045 46.2991 32.5376C47.7545 32.8275 48.9548 32.5597 50.1614 31.9265C51.1317 31.4193 52.1587 30.9436 52.9841 30.2473C54.4963 28.9651 55.8762 27.5254 57.3128 26.1518C57.2245 26.051 57.1363 25.9502 57.0481 25.8463H12.0419ZM43.3535 18.9942C36.5613 18.9942 29.8982 18.9501 23.2352 19.0225C21.3261 19.0446 19.8013 19.9582 18.957 21.9461H43.3535V18.9942Z" fill="black"/>
<path d="M12.0412 25.8467H57.0443C57.1325 25.9475 57.2207 26.0483 57.3089 26.1523C55.8723 27.5258 54.4925 28.9655 52.9803 30.2477C52.1549 30.9471 51.1279 31.4197 50.1576 31.9269C48.951 32.5601 47.7507 32.8279 46.2952 32.5381C45.1233 32.3049 43.8096 32.7271 42.5715 32.9224C42.1241 32.9949 41.6799 33.2059 41.2798 33.4359C38.7186 34.9134 36.2077 34.8977 33.5929 33.4706C30.9246 32.0151 28.127 31.9962 25.4524 33.4611C22.8439 34.8914 20.4118 34.7654 17.7403 33.5021C16.0485 32.7019 14.0638 32.5255 12.0381 32.0277V25.8467H12.0412ZM20.0873 28.3355C20.0873 28.3355 20.0873 28.326 20.0873 28.3197C19.6651 28.3197 19.1737 28.1811 18.8397 28.3512C18.3451 28.6033 17.652 29.0538 17.6237 29.4602C17.5953 29.8634 18.2286 30.6006 18.6728 30.692C19.599 30.881 20.6165 30.8589 21.5459 30.6762C21.9523 30.5974 22.5162 29.8981 22.5036 29.4948C22.491 29.0979 21.905 28.597 21.4545 28.3701C21.086 28.1843 20.5472 28.3323 20.0841 28.3323L20.0873 28.3355ZM29.7432 28.3071C29.7432 28.3071 29.7432 28.3134 29.7432 28.3166C29.321 28.3166 28.902 28.3103 28.4799 28.3166C27.6986 28.3323 27.1662 28.6789 27.141 29.5074C27.1158 30.3454 27.6608 30.7109 28.4169 30.7739C29.0028 30.8243 29.5951 30.8022 30.1842 30.8022C31.1041 30.8022 32.1217 30.7739 32.1501 29.5673C32.1784 28.3449 31.186 28.2756 30.2472 28.304C30.0803 28.3103 29.9101 28.304 29.7432 28.304V28.3071ZM39.3171 28.3071V28.3134C38.8981 28.3134 38.476 28.304 38.057 28.3134C37.2757 28.3323 36.7527 28.6852 36.7275 29.5074C36.7055 30.336 37.2347 30.7203 37.9971 30.7739C38.665 30.8211 39.3392 30.7991 40.0102 30.8022C40.8797 30.8022 41.7083 30.6069 41.7177 29.5673C41.7272 28.4394 40.8671 28.2693 39.9441 28.304C39.733 28.3134 39.5251 28.304 39.314 28.304L39.3171 28.3071Z" fill="#E4E9EC"/>
<path d="M43.3506 18.9941V21.946H18.9541C19.7984 19.9581 21.3232 19.0445 23.2323 19.0224C29.8953 18.9468 36.5584 18.9941 43.3506 18.9941Z" fill="#E4E9EC"/>
<path d="M20.0883 28.3344C20.5514 28.3344 21.0901 28.1863 21.4587 28.3722C21.9092 28.599 22.4952 29.0999 22.5078 29.4969C22.5204 29.9001 21.9565 30.5995 21.5501 30.6783C20.6207 30.861 19.6032 30.883 18.6769 30.694C18.2327 30.6027 17.5995 29.8655 17.6279 29.4622C17.6562 29.0558 18.3493 28.6053 18.8439 28.3533C19.1779 28.1832 19.6693 28.3218 20.0915 28.3218C20.0915 28.3281 20.0915 28.3312 20.0915 28.3375L20.0883 28.3344Z" fill="black"/>
<path d="M29.7446 28.3065C29.9116 28.3065 30.0817 28.3097 30.2487 28.3065C31.1875 28.2813 32.1799 28.3475 32.1515 29.5698C32.1232 30.7764 31.1025 30.8048 30.1857 30.8048C29.5966 30.8048 29.0043 30.8237 28.4183 30.7764C27.6623 30.7134 27.1172 30.3448 27.1424 29.51C27.1676 28.6846 27.7001 28.3349 28.4813 28.3191C28.9035 28.3097 29.3225 28.3191 29.7446 28.3191C29.7446 28.3191 29.7446 28.3128 29.7446 28.3097V28.3065Z" fill="black"/>
<path d="M39.3176 28.3068C39.5287 28.3068 39.7366 28.3131 39.9477 28.3068C40.8707 28.2721 41.7308 28.4422 41.7213 29.5701C41.7119 30.6097 40.8833 30.805 40.0138 30.805C39.3428 30.805 38.6686 30.8239 38.0007 30.7766C37.2383 30.7231 36.7091 30.3388 36.7311 29.5102C36.7532 28.688 37.2793 28.3351 38.0606 28.3162C38.4796 28.3068 38.9017 28.3162 39.3207 28.3162V28.3099L39.3176 28.3068Z" fill="black"/>
</svg>
