<svg data-v-d18686b0="" xmlns="http://www.w3.org/2000/svg" width="42" height="42" viewBox="0 0 42 42" fill="none"><g id="Boat"><path id="Vector" opacity="0.2" d="M36.75 20.6423V26.2664C34.3596 34.6451 23.2591 37.572 21.297 38.028C21.1016 38.074 20.8984 38.074 20.703 38.028C18.7409 37.5703 7.64039 34.6451 5.25 26.2664V20.6423C5.24964 20.3666 5.33614 20.0977 5.49723 19.8739C5.65832 19.6501 5.88581 19.4827 6.14742 19.3955L21 14.4375L35.8526 19.3955C36.1142 19.4827 36.3417 19.6501 36.5028 19.8739C36.6639 20.0977 36.7504 20.3666 36.75 20.6423Z" fill="#1D2339"></path><path id="Vector_2" d="M36.2677 18.1502L34.125 17.4349V9.1875C34.125 8.49131 33.8484 7.82363 33.3562 7.33134C32.8639 6.83906 32.1962 6.5625 31.5 6.5625H22.3125V3.9375C22.3125 3.5894 22.1742 3.25556 21.9281 3.00942C21.6819 2.76328 21.3481 2.625 21 2.625C20.6519 2.625 20.3181 2.76328 20.0719 3.00942C19.8258 3.25556 19.6875 3.5894 19.6875 3.9375V6.5625H10.5C9.80381 6.5625 9.13613 6.83906 8.64385 7.33134C8.15157 7.82363 7.87501 8.49131 7.87501 9.1875V17.4349L5.73235 18.1502C5.2094 18.3246 4.7546 18.6591 4.43244 19.1064C4.11028 19.5537 3.93712 20.0911 3.93751 20.6423V26.2664C3.93715 26.388 3.95428 26.509 3.98836 26.6257C6.56743 35.6639 18.1174 38.7762 20.4061 39.3077C20.797 39.3974 21.203 39.3974 21.5939 39.3077C23.8826 38.7762 35.4326 35.6639 38.0116 26.6257C38.0457 26.509 38.0629 26.388 38.0625 26.2664V20.6423C38.0629 20.0911 37.8897 19.5537 37.5676 19.1064C37.2454 18.6591 36.7906 18.3246 36.2677 18.1502ZM10.5 9.1875H31.5V16.5588L21.4151 13.1923C21.1457 13.1024 20.8544 13.1024 20.5849 13.1923L10.5 16.5588V9.1875ZM35.4375 26.0761C34.4892 29.1933 32.066 31.8462 28.227 33.9708C25.949 35.2074 23.5196 36.1417 21 36.75C18.4833 36.141 16.0566 35.2068 13.7813 33.9708C9.93563 31.8462 7.51079 29.1916 6.56251 26.0761V20.6407L19.6875 16.2602V27.5625C19.6875 27.9106 19.8258 28.2444 20.0719 28.4906C20.3181 28.7367 20.6519 28.875 21 28.875C21.3481 28.875 21.6819 28.7367 21.9281 28.4906C22.1742 28.2444 22.3125 27.9106 22.3125 27.5625V16.2602L35.4375 20.6423V26.0761Z" fill="#1D2339"></path></g></svg>