<svg xmlns="http://www.w3.org/2000/svg" width="42" height="42" viewBox="0 0 42 42" fill="none" data-v-d18686b0=""><g id="Receipt" data-v-d18686b0=""><path id="Vector" opacity="0.2" d="M36.75 9.1875V34.125L31.5 31.5L26.25 34.125L21 31.5L15.75 34.125L10.5 31.5L5.25 34.125V9.1875C5.25 8.8394 5.38828 8.50556 5.63442 8.25942C5.88056 8.01328 6.2144 7.875 6.5625 7.875H35.4375C35.7856 7.875 36.1194 8.01328 36.3656 8.25942C36.6117 8.50556 36.75 8.8394 36.75 9.1875Z" fill="#1D2339" data-v-d18686b0=""></path><path id="Vector_2" d="M11.8125 17.0625C11.8125 16.7144 11.9508 16.3806 12.1969 16.1344C12.4431 15.8883 12.7769 15.75 13.125 15.75H28.875C29.2231 15.75 29.5569 15.8883 29.8031 16.1344C30.0492 16.3806 30.1875 16.7144 30.1875 17.0625C30.1875 17.4106 30.0492 17.7444 29.8031 17.9906C29.5569 18.2367 29.2231 18.375 28.875 18.375H13.125C12.7769 18.375 12.4431 18.2367 12.1969 17.9906C11.9508 17.7444 11.8125 17.4106 11.8125 17.0625ZM13.125 23.625H28.875C29.2231 23.625 29.5569 23.4867 29.8031 23.2406C30.0492 22.9944 30.1875 22.6606 30.1875 22.3125C30.1875 21.9644 30.0492 21.6306 29.8031 21.3844C29.5569 21.1383 29.2231 21 28.875 21H13.125C12.7769 21 12.4431 21.1383 12.1969 21.3844C11.9508 21.6306 11.8125 21.9644 11.8125 22.3125C11.8125 22.6606 11.9508 22.9944 12.1969 23.2406C12.4431 23.4867 12.7769 23.625 13.125 23.625ZM38.0625 9.1875V34.125C38.0624 34.3487 38.0051 34.5687 37.8961 34.764C37.787 34.9593 37.6299 35.1235 37.4395 35.2411C37.2492 35.3586 37.032 35.4255 36.8085 35.4355C36.585 35.4455 36.3627 35.3982 36.1627 35.298L31.5 32.9667L26.8373 35.298C26.655 35.3893 26.4539 35.4368 26.25 35.4368C26.0461 35.4368 25.845 35.3893 25.6627 35.298L21 32.9667L16.3373 35.298C16.155 35.3893 15.9539 35.4368 15.75 35.4368C15.5461 35.4368 15.345 35.3893 15.1627 35.298L10.5 32.9667L5.83734 35.298C5.63729 35.3982 5.41497 35.4455 5.1915 35.4355C4.96802 35.4255 4.7508 35.3586 4.56045 35.2411C4.37011 35.1235 4.21297 34.9593 4.10394 34.764C3.99491 34.5687 3.93762 34.3487 3.9375 34.125V9.1875C3.9375 8.49131 4.21406 7.82363 4.70634 7.33134C5.19863 6.83906 5.86631 6.5625 6.5625 6.5625H35.4375C36.1337 6.5625 36.8014 6.83906 37.2937 7.33134C37.7859 7.82363 38.0625 8.49131 38.0625 9.1875ZM35.4375 9.1875H6.5625V32.002L9.91266 30.3253C10.095 30.2341 10.2961 30.1866 10.5 30.1866C10.7039 30.1866 10.905 30.2341 11.0873 30.3253L15.75 32.6583L20.4127 30.3253C20.595 30.2341 20.7961 30.1866 21 30.1866C21.2039 30.1866 21.405 30.2341 21.5873 30.3253L26.25 32.6583L30.9127 30.3253C31.095 30.2341 31.2961 30.1866 31.5 30.1866C31.7039 30.1866 31.905 30.2341 32.0873 30.3253L35.4375 32.002V9.1875Z" fill="#1D2339" data-v-d18686b0=""></path></g></svg>