<svg data-v-d18686b0="" xmlns="http://www.w3.org/2000/svg" width="42" height="42" viewBox="0 0 42 42" fill="none"><g id="ShieldChevron"><path id="Vector" opacity="0.2" d="M33.2227 28.2434C29.7134 34.8731 23.0967 37.4309 21.4102 37.9952C21.1487 38.0855 20.8645 38.0855 20.603 37.9952C18.9098 37.4325 12.2932 34.878 8.79047 28.2434L21 19.6875L33.2227 28.2434Z" fill="#1D2339"></path><path id="Vector_2" d="M34.125 6.5625H7.875C7.17881 6.5625 6.51113 6.83906 6.01884 7.33134C5.52656 7.82363 5.25 8.49131 5.25 9.1875V18.8295C5.25 33.5311 17.6892 38.4087 20.1797 39.2372C20.7116 39.4181 21.2884 39.4181 21.8203 39.2372C24.3141 38.4087 36.75 33.5311 36.75 18.8295V9.1875C36.75 8.49131 36.4734 7.82363 35.9812 7.33134C35.4889 6.83906 34.8212 6.5625 34.125 6.5625ZM21 36.75C19.4808 36.2447 13.8977 34.0725 10.5213 28.6289L21 21.2887L31.4787 28.624C28.1055 34.061 22.5323 36.2332 21 36.75ZM34.125 18.8377C34.125 21.7317 33.5737 24.191 32.6944 26.2763L21.753 18.6178C21.5324 18.4632 21.2694 18.3803 21 18.3803C20.7306 18.3803 20.4676 18.4632 20.247 18.6178L9.30562 26.2713C8.42625 24.1861 7.875 21.7268 7.875 18.8327V9.1875H34.125V18.8377Z" fill="#1D2339"></path></g></svg>